<svg width="32" height="32" viewBox="0 0 32 32" fill="none" xmlns="http://www.w3.org/2000/svg">
<g clip-path="url(#clip0_3222_99419)">
<rect width="32" height="32" rx="6" fill="#B37FEB"/>
<path d="M32.5703 24.3706C29.4945 25.0131 26.4595 23.0836 26.4595 23.0836C26.4595 23.0836 28.4587 20.0546 31.5344 19.4121C34.6102 18.7697 37.6453 20.6992 37.6453 20.6992C37.6453 20.6992 35.6461 23.7281 32.5703 24.3706Z" fill="black"/>
<path d="M25.8364 27.5627C24.5735 29.6749 22.2297 30.6468 22.2297 30.6468C22.2297 30.6468 21.9311 28.1722 23.194 26.06C24.4569 23.9478 26.8007 22.976 26.8007 22.976C26.8007 22.976 27.0993 25.4505 25.8364 27.5627Z" fill="black"/>
<path d="M29.9541 25.6621C31.1312 27.5964 30.915 29.8813 30.915 29.8813C30.915 29.8813 28.7715 29.0224 27.5944 27.0881C26.4173 25.1539 26.6335 22.8689 26.6335 22.8689C26.6335 22.8689 28.777 23.7278 29.9541 25.6621Z" fill="black"/>
<path d="M19.3163 20.1851C21.9256 22.6363 23.115 17.7759 24.0638 15.0875C24.3802 16.4317 25.3829 19.9345 24.0638 21.1761C22.7197 22.4412 23.1899 24.0827 18.6828 23.4501C14.1756 22.8176 14.0217 17.855 10.6216 18.0132C7.22144 18.1713 6.66795 23.2319 5.9563 25.9204C5.24465 28.6088 0.421247 26.553 0.737536 22.4412C1.05382 18.3295 5.60593 14.0928 9.76482 13.6551C16.2462 12.9728 16.7069 17.7338 19.3163 20.1851Z" fill="#D8B9FF"/>
<path fill-rule="evenodd" clip-rule="evenodd" d="M20.5398 16.2313L23.3694 20.2185L24.0979 14.4057L22.7789 17.1955L19.4287 11.5222L18.3964 16.8873L14.2753 11.5269L12.245 18.376L7.53902 12.9493C8.18206 11.3768 9.18981 9.92664 10.553 8.73383C15.2328 4.63884 22.3293 5.12772 26.4034 9.82572C30.4775 14.5237 29.9865 21.6519 25.3067 25.7469C20.6269 29.8419 13.5304 29.353 9.45629 24.655C9.03263 24.1664 8.65833 23.6516 8.33297 23.1167L13.8167 25.0377L15.6562 17.3798L19.6276 22.1061L20.5398 16.2313Z" fill="black"/>
<path d="M26.2659 20.8647C33.9585 42.2723 10.5875 43.0538 18.6738 60.4005" stroke="black" stroke-width="2.79956"/>
<path d="M20.3495 9.35939C21.1877 9.48491 21.9829 9.12796 22.5873 8.51688C23.1919 7.90554 23.6295 7.02088 23.7806 6.01169C23.9317 5.0025 23.7724 4.02845 23.3734 3.26683C22.9746 2.50553 22.3188 1.93129 21.4806 1.80577C20.6423 1.68025 19.8471 2.03721 19.2428 2.64829C18.6382 3.25963 18.2005 4.14429 18.0494 5.15348C17.8983 6.16267 18.0576 7.13672 18.4566 7.89834C18.8554 8.65964 19.5112 9.23388 20.3495 9.35939Z" fill="white" stroke="black" stroke-width="0.788062"/>
<path d="M13.2084 8.01539C13.7321 8.08856 14.2061 7.83832 14.5467 7.46462C14.8888 7.08924 15.1291 6.56021 15.2116 5.96966C15.2942 5.37912 15.2081 4.80449 14.982 4.34971C14.7569 3.89696 14.3696 3.52637 13.8459 3.4532C13.3222 3.38003 12.8481 3.63026 12.5075 4.00396C12.1654 4.37935 11.9251 4.90838 11.8426 5.49892C11.7601 6.08947 11.8462 6.6641 12.0723 7.11888C12.2974 7.57162 12.6847 7.94221 13.2084 8.01539Z" fill="white" stroke="black" stroke-width="0.788062"/>
<path d="M21.6789 5.61366C21.5179 6.8122 20.9157 7.72002 20.3367 7.64226C19.8509 7.57397 19.5682 7.04983 19.7883 5.94593C19.8743 5.47708 19.9163 5.00138 19.9137 4.52464C19.9161 3.50635 20.4405 3.22994 20.9243 3.29752C21.5033 3.37527 21.8455 4.40552 21.6789 5.61366Z" fill="black"/>
<path d="M19.5903 3.8197L21.0552 4.97464L18.5479 5.50483L19.5903 3.8197Z" fill="white"/>
<path d="M13.7959 5.64529C13.7198 6.21201 13.435 6.64127 13.1613 6.6045C12.9316 6.57221 12.7979 6.32438 12.902 5.80241C12.9426 5.58071 12.9625 5.35578 12.9612 5.13036C12.9624 4.64887 13.2104 4.51817 13.4391 4.55012C13.7129 4.58689 13.8747 5.07403 13.7959 5.64529Z" fill="black"/>
<path d="M12.8086 4.79772L13.5012 5.34382L12.3157 5.59452L12.8086 4.79772Z" fill="white"/>
</g>
<defs>
<clipPath id="clip0_3222_99419">
<rect width="32" height="32" rx="6" fill="white"/>
</clipPath>
</defs>
</svg>
